<?xml version="1.0" encoding="UTF-8"?>
<svg xmlns="http://www.w3.org/2000/svg" xmlns:xlink="http://www.w3.org/1999/xlink" width="50px" height="50px" viewBox="0 0 50 50" version="1.1">
<g id="surface215796">
<path style=" stroke:none;fill-rule:nonzero;fill:rgb(93.333333%,24.313725%,32.941176%);fill-opacity:1;" d="M 6.5 13.5 C 5.949219 13.5 5.5 13.949219 5.5 14.5 C 5.5 15.050781 5.949219 15.5 6.5 15.5 C 7.050781 15.5 7.5 15.050781 7.5 14.5 C 7.5 13.949219 7.050781 13.5 6.5 13.5 Z M 6.5 13.5 "/>
<path style=" stroke:none;fill-rule:nonzero;fill:rgb(94.509804%,73.72549%,9.803922%);fill-opacity:1;" d="M 38.5 6 C 38.222656 6 38 6.222656 38 6.5 C 38 6.777344 38.222656 7 38.5 7 C 38.777344 7 39 6.777344 39 6.5 C 39 6.222656 38.777344 6 38.5 6 Z M 38.5 6 "/>
<path style=" stroke:none;fill-rule:nonzero;fill:rgb(98.823529%,87.843137%,63.529412%);fill-opacity:1;" d="M 25 6.5 C 14.78125 6.5 6.5 14.78125 6.5 25 C 6.5 35.21875 14.78125 43.5 25 43.5 C 35.21875 43.5 43.5 35.21875 43.5 25 C 43.5 14.78125 35.21875 6.5 25 6.5 Z M 25 6.5 "/>
<path style=" stroke:none;fill-rule:nonzero;fill:rgb(94.509804%,73.72549%,9.803922%);fill-opacity:1;" d="M 41.5 5.5 C 40.394531 5.5 39.5 6.394531 39.5 7.5 C 39.5 8.605469 40.394531 9.5 41.5 9.5 C 42.605469 9.5 43.5 8.605469 43.5 7.5 C 43.5 6.394531 42.605469 5.5 41.5 5.5 Z M 41.5 5.5 "/>
<path style=" stroke:none;fill-rule:nonzero;fill:rgb(93.333333%,24.313725%,32.941176%);fill-opacity:1;" d="M 43.5 11 C 42.949219 11 42.5 11.449219 42.5 12 C 42.5 12.550781 42.949219 13 43.5 13 C 44.050781 13 44.5 12.550781 44.5 12 C 44.5 11.449219 44.050781 11 43.5 11 Z M 43.5 11 "/>
<path style=" stroke:none;fill-rule:nonzero;fill:rgb(98.431373%,80.392157%,34.901961%);fill-opacity:1;" d="M 40.5 37 C 39.949219 37 39.5 37.449219 39.5 38 C 39.5 38.550781 39.949219 39 40.5 39 C 41.050781 39 41.5 38.550781 41.5 38 C 41.5 37.449219 41.050781 37 40.5 37 Z M 7.5 29.5 C 6.394531 29.5 5.5 30.394531 5.5 31.5 C 5.5 32.605469 6.394531 33.5 7.5 33.5 C 8.605469 33.5 9.5 32.605469 9.5 31.5 C 9.5 30.394531 8.605469 29.5 7.5 29.5 Z M 7.5 29.5 "/>
<path style=" stroke:none;fill-rule:nonzero;fill:rgb(93.333333%,24.313725%,32.941176%);fill-opacity:1;" d="M 12.5 42.5 C 11.949219 42.5 11.5 42.949219 11.5 43.5 C 11.5 44.050781 11.949219 44.5 12.5 44.5 C 13.050781 44.5 13.5 44.050781 13.5 43.5 C 13.5 42.949219 13.050781 42.5 12.5 42.5 Z M 12.5 42.5 "/>
<path style=" stroke:none;fill-rule:nonzero;fill:rgb(100%,100%,100%);fill-opacity:1;" d="M 9.25 25.5 C 8.558594 25.5 8 26.058594 8 26.75 C 8 27.441406 8.558594 28 9.25 28 C 9.941406 28 10.5 27.441406 10.5 26.75 C 10.5 26.058594 9.941406 25.5 9.25 25.5 Z M 9.25 25.5 "/>
<path style=" stroke:none;fill-rule:nonzero;fill:rgb(94.509804%,73.72549%,9.803922%);fill-opacity:1;" d="M 10.5 33 C 10.222656 33 10 33.222656 10 33.5 C 10 33.777344 10.222656 34 10.5 34 C 10.777344 34 11 33.777344 11 33.5 C 11 33.222656 10.777344 33 10.5 33 Z M 10.5 33 "/>
<path style=" stroke:none;fill-rule:nonzero;fill:rgb(100%,100%,100%);fill-opacity:1;" d="M 40 16.5 C 39.722656 16.5 39.5 16.722656 39.5 17 C 39.5 17.277344 39.722656 17.5 40 17.5 C 40.277344 17.5 40.5 17.277344 40.5 17 C 40.5 16.722656 40.277344 16.5 40 16.5 Z M 40 16.5 "/>
<path style=" stroke:none;fill-rule:nonzero;fill:rgb(53.333333%,68.235294%,27.058824%);fill-opacity:1;" d="M 34.554688 15.695312 C 35.21875 15.527344 35.898438 15.933594 35.996094 16.320312 L 38.683594 26.949219 C 38.921875 27.886719 38.519531 28.566406 37.855469 28.734375 L 16.679688 34.089844 C 16.289062 34.1875 15.898438 34.089844 15.605469 33.859375 "/>
<path style=" stroke:none;fill-rule:nonzero;fill:rgb(27.843137%,16.862745%,16.078431%);fill-opacity:1;" d="M 16.371094 34.5 C 16.011719 34.5 15.664062 34.382812 15.375 34.152344 C 15.214844 34.027344 15.1875 33.792969 15.3125 33.632812 C 15.4375 33.472656 15.671875 33.445312 15.832031 33.570312 C 16.050781 33.738281 16.324219 33.796875 16.585938 33.730469 L 37.761719 28.378906 C 37.992188 28.320312 38.171875 28.175781 38.277344 27.96875 C 38.398438 27.71875 38.417969 27.402344 38.324219 27.039062 L 35.636719 16.410156 C 35.621094 16.355469 35.527344 16.230469 35.328125 16.136719 C 35.109375 16.03125 34.863281 16.003906 34.648438 16.058594 C 34.453125 16.109375 34.246094 15.988281 34.195312 15.789062 C 34.144531 15.589844 34.265625 15.386719 34.464844 15.335938 C 34.851562 15.238281 35.273438 15.285156 35.652344 15.46875 C 36.015625 15.644531 36.28125 15.929688 36.355469 16.230469 L 39.046875 26.859375 C 39.179688 27.394531 39.144531 27.890625 38.941406 28.300781 C 38.738281 28.703125 38.386719 28.984375 37.945312 29.097656 L 16.769531 34.449219 C 16.636719 34.484375 16.503906 34.5 16.371094 34.5 Z M 16.371094 34.5 "/>
<path style=" stroke:none;fill-rule:nonzero;fill:rgb(75.294118%,81.568627%,47.058824%);fill-opacity:1;" d="M 34.984375 27.894531 L 15.886719 32.722656 C 14.660156 33.035156 13.402344 32.285156 13.089844 31.058594 L 10.941406 22.566406 C 10.632812 21.339844 11.382812 20.082031 12.609375 19.769531 L 31.703125 14.941406 C 32.933594 14.628906 34.191406 15.382812 34.503906 16.609375 L 36.652344 25.097656 C 36.960938 26.328125 36.210938 27.585938 34.984375 27.894531 Z M 34.984375 27.894531 "/>
<path style=" stroke:none;fill-rule:nonzero;fill:rgb(27.843137%,16.862745%,16.078431%);fill-opacity:1;" d="M 15.324219 33.164062 C 14.847656 33.164062 14.378906 33.039062 13.953125 32.785156 C 13.339844 32.417969 12.90625 31.835938 12.730469 31.148438 L 10.582031 22.65625 C 10.21875 21.226562 11.089844 19.773438 12.519531 19.410156 L 31.613281 14.582031 C 33.046875 14.222656 34.5 15.089844 34.863281 16.515625 L 37.011719 25.007812 C 37.371094 26.4375 36.503906 27.890625 35.074219 28.253906 L 15.976562 33.082031 C 15.761719 33.136719 15.542969 33.164062 15.324219 33.164062 Z M 32.269531 15.242188 C 32.113281 15.242188 31.953125 15.261719 31.796875 15.300781 L 12.699219 20.128906 C 12.203125 20.253906 11.78125 20.570312 11.519531 21.015625 C 11.253906 21.457031 11.175781 21.976562 11.300781 22.476562 L 13.449219 30.964844 C 13.574219 31.464844 13.890625 31.882812 14.335938 32.148438 C 14.78125 32.414062 15.296875 32.492188 15.796875 32.363281 L 34.890625 27.535156 C 35.925781 27.273438 36.554688 26.222656 36.292969 25.191406 L 34.144531 16.699219 C 33.921875 15.824219 33.132812 15.242188 32.269531 15.242188 Z M 34.984375 27.894531 L 34.988281 27.894531 Z M 34.984375 27.894531 "/>
<path style=" stroke:none;fill-rule:nonzero;fill:rgb(53.333333%,68.235294%,27.058824%);fill-opacity:1;" d="M 26.914062 18.191406 L 13.847656 21.492188 C 14.050781 22.304688 13.605469 23.113281 12.851562 23.304688 L 14.417969 29.5 C 15.171875 29.308594 15.949219 29.808594 16.15625 30.621094 L 33.746094 26.171875 C 33.542969 25.363281 33.988281 24.550781 34.742188 24.359375 L 33.175781 18.167969 L 33.171875 18.167969 C 32.417969 18.359375 31.644531 17.855469 31.4375 17.046875 L 29.859375 17.445312 "/>
<path style=" stroke:none;fill-rule:nonzero;fill:rgb(27.843137%,16.862745%,16.078431%);fill-opacity:1;" d="M 16.15625 30.792969 C 16.078125 30.792969 16.007812 30.738281 15.988281 30.660156 C 15.808594 29.945312 15.121094 29.496094 14.460938 29.664062 C 14.367188 29.691406 14.277344 29.632812 14.253906 29.539062 L 12.683594 23.347656 C 12.675781 23.300781 12.679688 23.253906 12.703125 23.214844 C 12.726562 23.175781 12.765625 23.148438 12.808594 23.136719 C 13.46875 22.972656 13.859375 22.253906 13.679688 21.535156 C 13.65625 21.445312 13.710938 21.351562 13.804688 21.328125 L 26.871094 18.023438 C 26.964844 18 27.054688 18.054688 27.078125 18.148438 C 27.101562 18.238281 27.046875 18.332031 26.953125 18.355469 L 14.046875 21.621094 C 14.167969 22.402344 13.753906 23.15625 13.058594 23.417969 L 14.546875 29.300781 C 15.285156 29.207031 16.007812 29.667969 16.273438 30.414062 L 33.546875 26.046875 C 33.488281 25.664062 33.554688 25.28125 33.734375 24.953125 C 33.917969 24.617188 34.195312 24.375 34.535156 24.246094 L 33.046875 18.367188 C 32.6875 18.414062 32.324219 18.332031 32.007812 18.125 C 31.6875 17.921875 31.449219 17.613281 31.320312 17.253906 L 29.902344 17.613281 C 29.804688 17.636719 29.714844 17.578125 29.691406 17.488281 C 29.667969 17.394531 29.722656 17.300781 29.816406 17.277344 L 31.394531 16.878906 C 31.492188 16.855469 31.582031 16.910156 31.605469 17.003906 C 31.785156 17.71875 32.472656 18.167969 33.128906 18 C 33.226562 17.976562 33.316406 18.03125 33.339844 18.125 L 34.90625 24.320312 C 34.917969 24.363281 34.910156 24.410156 34.890625 24.449219 C 34.867188 24.488281 34.828125 24.515625 34.785156 24.527344 C 34.464844 24.609375 34.199219 24.816406 34.035156 25.117188 C 33.867188 25.421875 33.824219 25.78125 33.914062 26.128906 C 33.925781 26.175781 33.917969 26.222656 33.894531 26.261719 C 33.871094 26.300781 33.832031 26.328125 33.789062 26.339844 L 16.199219 30.789062 C 16.183594 30.789062 16.167969 30.792969 16.15625 30.792969 Z M 16.15625 30.792969 "/>
<path style=" stroke:none;fill-rule:nonzero;fill:rgb(27.843137%,16.862745%,16.078431%);fill-opacity:1;" d="M 27.5 18.210938 C 27.425781 18.210938 27.355469 18.160156 27.335938 18.082031 C 27.3125 17.988281 27.367188 17.894531 27.460938 17.871094 L 27.753906 17.796875 C 27.847656 17.777344 27.941406 17.832031 27.964844 17.921875 C 27.988281 18.015625 27.929688 18.109375 27.839844 18.132812 L 27.542969 18.207031 C 27.53125 18.210938 27.515625 18.210938 27.5 18.210938 Z M 27.5 18.210938 "/>
<path style=" stroke:none;fill-rule:nonzero;fill:rgb(75.294118%,81.568627%,47.058824%);fill-opacity:1;" d="M 23.796875 20.949219 C 22.203125 20.949219 20.910156 22.238281 20.910156 23.832031 C 20.910156 25.425781 22.203125 26.71875 23.796875 26.71875 C 25.390625 26.71875 26.683594 25.425781 26.683594 23.832031 C 26.683594 22.238281 25.390625 20.949219 23.796875 20.949219 Z M 23.796875 20.949219 "/>
<path style=" stroke:none;fill-rule:nonzero;fill:rgb(27.843137%,16.862745%,16.078431%);fill-opacity:1;" d="M 23.796875 26.890625 C 22.429688 26.890625 21.183594 25.964844 20.832031 24.582031 C 20.417969 22.949219 21.410156 21.28125 23.046875 20.867188 C 24.683594 20.457031 26.347656 21.449219 26.761719 23.082031 C 27.175781 24.71875 26.179688 26.382812 24.546875 26.796875 C 24.296875 26.859375 24.042969 26.890625 23.796875 26.890625 Z M 23.800781 21.117188 C 23.578125 21.117188 23.351562 21.148438 23.132812 21.203125 C 21.679688 21.570312 20.800781 23.046875 21.164062 24.496094 C 21.34375 25.199219 21.785156 25.792969 22.40625 26.164062 C 23.03125 26.535156 23.761719 26.640625 24.460938 26.460938 C 25.914062 26.097656 26.792969 24.617188 26.425781 23.167969 C 26.25 22.464844 25.808594 21.875 25.1875 21.503906 C 24.761719 21.25 24.285156 21.117188 23.800781 21.117188 Z M 23.800781 21.117188 "/>
<path style=" stroke:none;fill-rule:nonzero;fill:rgb(75.294118%,81.568627%,47.058824%);fill-opacity:1;" d="M 18.3125 24.152344 C 17.808594 24.152344 17.398438 24.5625 17.398438 25.0625 C 17.398438 25.566406 17.808594 25.976562 18.3125 25.976562 C 18.8125 25.976562 19.222656 25.566406 19.222656 25.0625 C 19.222656 24.5625 18.8125 24.152344 18.3125 24.152344 Z M 18.3125 24.152344 "/>
<path style=" stroke:none;fill-rule:nonzero;fill:rgb(27.843137%,16.862745%,16.078431%);fill-opacity:1;" d="M 18.308594 26.148438 C 18.117188 26.148438 17.925781 26.09375 17.757812 25.992188 C 17.507812 25.84375 17.332031 25.609375 17.261719 25.328125 C 17.191406 25.046875 17.234375 24.757812 17.382812 24.507812 C 17.527344 24.257812 17.765625 24.082031 18.046875 24.011719 C 18.328125 23.941406 18.617188 23.984375 18.867188 24.132812 C 19.117188 24.28125 19.292969 24.515625 19.363281 24.796875 C 19.433594 25.078125 19.390625 25.371094 19.242188 25.617188 C 19.09375 25.867188 18.859375 26.042969 18.578125 26.113281 C 18.488281 26.136719 18.398438 26.148438 18.308594 26.148438 Z M 18.3125 24.324219 C 18.25 24.324219 18.191406 24.332031 18.128906 24.347656 C 17.9375 24.394531 17.777344 24.515625 17.675781 24.683594 C 17.574219 24.855469 17.546875 25.054688 17.59375 25.242188 C 17.644531 25.433594 17.761719 25.597656 17.933594 25.699219 C 18.101562 25.796875 18.300781 25.828125 18.492188 25.777344 C 18.683594 25.730469 18.84375 25.609375 18.945312 25.441406 C 19.046875 25.273438 19.078125 25.074219 19.027344 24.882812 C 18.980469 24.691406 18.859375 24.527344 18.691406 24.429688 C 18.574219 24.359375 18.445312 24.324219 18.3125 24.324219 Z M 18.3125 24.324219 "/>
<path style=" stroke:none;fill-rule:nonzero;fill:rgb(75.294118%,81.568627%,47.058824%);fill-opacity:1;" d="M 29.207031 21.398438 C 28.707031 21.398438 28.296875 21.804688 28.296875 22.308594 C 28.296875 22.8125 28.707031 23.21875 29.207031 23.21875 C 29.710938 23.21875 30.121094 22.8125 30.121094 22.308594 C 30.121094 21.804688 29.710938 21.398438 29.207031 21.398438 Z M 29.207031 21.398438 "/>
<path style=" stroke:none;fill-rule:nonzero;fill:rgb(27.843137%,16.862745%,16.078431%);fill-opacity:1;" d="M 29.210938 23.390625 C 28.722656 23.390625 28.28125 23.0625 28.15625 22.574219 C 28.011719 21.992188 28.363281 21.40625 28.941406 21.257812 C 29.519531 21.113281 30.113281 21.464844 30.257812 22.042969 C 30.40625 22.621094 30.054688 23.210938 29.472656 23.359375 C 29.386719 23.378906 29.296875 23.390625 29.210938 23.390625 Z M 29.207031 21.570312 C 29.148438 21.570312 29.085938 21.578125 29.027344 21.59375 C 28.632812 21.691406 28.390625 22.09375 28.492188 22.488281 C 28.589844 22.882812 28.996094 23.125 29.386719 23.023438 C 29.78125 22.925781 30.023438 22.519531 29.921875 22.128906 C 29.839844 21.792969 29.539062 21.570312 29.207031 21.570312 Z M 29.207031 21.570312 "/>
<path style=" stroke:none;fill-rule:nonzero;fill:rgb(98.431373%,80.392157%,34.901961%);fill-opacity:1;" d="M 36.417969 23.5625 C 34.585938 23.5625 33.101562 25.050781 33.101562 26.882812 C 33.101562 28.714844 34.585938 30.199219 36.417969 30.199219 C 38.25 30.199219 39.734375 28.714844 39.734375 26.882812 C 39.734375 25.050781 38.25 23.5625 36.417969 23.5625 Z M 36.417969 23.5625 "/>
<path style=" stroke:none;fill-rule:nonzero;fill:rgb(27.843137%,16.862745%,16.078431%);fill-opacity:1;" d="M 36.417969 30.464844 C 34.441406 30.464844 32.835938 28.855469 32.835938 26.882812 C 32.835938 24.90625 34.441406 23.300781 36.417969 23.300781 C 38.394531 23.300781 40 24.90625 40 26.882812 C 40 28.855469 38.394531 30.464844 36.417969 30.464844 Z M 36.417969 23.828125 C 34.734375 23.828125 33.367188 25.199219 33.367188 26.882812 C 33.367188 28.5625 34.734375 29.933594 36.417969 29.933594 C 38.101562 29.933594 39.46875 28.5625 39.46875 26.882812 C 39.46875 25.199219 38.101562 23.828125 36.417969 23.828125 Z M 36.417969 23.828125 "/>
<path style=" stroke:none;fill-rule:nonzero;fill:rgb(94.509804%,73.72549%,9.803922%);fill-opacity:1;" d="M 36.417969 24.710938 C 35.21875 24.710938 34.25 25.683594 34.25 26.882812 C 34.25 28.078125 35.21875 29.050781 36.417969 29.050781 C 37.617188 29.050781 38.585938 28.078125 38.585938 26.882812 C 38.585938 25.683594 37.617188 24.710938 36.417969 24.710938 Z M 36.417969 24.710938 "/>
<path style=" stroke:none;fill-rule:nonzero;fill:rgb(27.843137%,16.862745%,16.078431%);fill-opacity:1;" d="M 36.417969 29.183594 C 35.148438 29.183594 34.117188 28.148438 34.117188 26.882812 C 34.117188 25.613281 35.148438 24.578125 36.417969 24.578125 C 37.6875 24.578125 38.71875 25.613281 38.71875 26.882812 C 38.71875 28.148438 37.6875 29.183594 36.417969 29.183594 Z M 36.417969 24.84375 C 35.296875 24.84375 34.382812 25.757812 34.382812 26.882812 C 34.382812 28.003906 35.296875 28.917969 36.417969 28.917969 C 37.539062 28.917969 38.453125 28.003906 38.453125 26.882812 C 38.453125 25.757812 37.539062 24.84375 36.417969 24.84375 Z M 36.417969 24.84375 "/>
<path style=" stroke:none;fill-rule:nonzero;fill:rgb(98.431373%,80.392157%,34.901961%);fill-opacity:1;" d="M 31.082031 27.375 C 29.25 27.375 27.765625 28.863281 27.765625 30.695312 C 27.765625 32.527344 29.25 34.011719 31.082031 34.011719 C 32.914062 34.011719 34.398438 32.527344 34.398438 30.695312 C 34.398438 28.863281 32.914062 27.375 31.082031 27.375 Z M 31.082031 27.375 "/>
<path style=" stroke:none;fill-rule:nonzero;fill:rgb(27.843137%,16.862745%,16.078431%);fill-opacity:1;" d="M 31.082031 34.5 C 29.105469 34.5 27.5 32.84375 27.5 30.804688 C 27.5 28.769531 29.105469 27.113281 31.082031 27.113281 C 33.058594 27.113281 34.664062 28.769531 34.664062 30.804688 C 34.664062 32.84375 33.058594 34.5 31.082031 34.5 Z M 31.082031 27.644531 C 29.398438 27.644531 28.03125 29.011719 28.03125 30.695312 C 28.03125 32.375 29.398438 33.746094 31.082031 33.746094 C 32.765625 33.746094 34.132812 32.378906 34.132812 30.695312 C 34.132812 29.011719 32.765625 27.644531 31.082031 27.644531 Z M 31.082031 27.644531 "/>
<path style=" stroke:none;fill-rule:nonzero;fill:rgb(94.509804%,73.72549%,9.803922%);fill-opacity:1;" d="M 31.082031 28.523438 C 29.882812 28.523438 28.914062 29.496094 28.914062 30.695312 C 28.914062 31.890625 29.882812 32.863281 31.082031 32.863281 C 32.28125 32.863281 33.25 31.890625 33.25 30.695312 C 33.25 29.496094 32.28125 28.523438 31.082031 28.523438 Z M 31.082031 28.523438 "/>
<path style=" stroke:none;fill-rule:nonzero;fill:rgb(27.843137%,16.862745%,16.078431%);fill-opacity:1;" d="M 31.082031 32.996094 C 29.8125 32.996094 28.78125 31.960938 28.78125 30.695312 C 28.78125 29.425781 29.8125 28.390625 31.082031 28.390625 C 32.351562 28.390625 33.382812 29.425781 33.382812 30.695312 C 33.382812 31.964844 32.351562 32.996094 31.082031 32.996094 Z M 31.082031 28.65625 C 29.960938 28.65625 29.046875 29.570312 29.046875 30.695312 C 29.046875 31.816406 29.960938 32.730469 31.082031 32.730469 C 32.203125 32.730469 33.117188 31.816406 33.117188 30.695312 C 33.117188 29.570312 32.203125 28.65625 31.082031 28.65625 Z M 31.082031 28.65625 "/>
<path style=" stroke:none;fill-rule:nonzero;fill:rgb(27.843137%,16.862745%,16.078431%);fill-opacity:1;" d="M 30.800781 31.273438 C 30.804688 31.273438 30.808594 31.277344 30.816406 31.28125 L 30.8125 31.28125 C 30.855469 31.308594 30.894531 31.335938 30.929688 31.351562 C 30.964844 31.367188 31 31.378906 31.039062 31.386719 L 31.039062 30.691406 L 31 30.667969 C 30.949219 30.640625 30.902344 30.613281 30.859375 30.582031 C 30.8125 30.550781 30.773438 30.519531 30.738281 30.484375 C 30.699219 30.445312 30.671875 30.410156 30.644531 30.367188 C 30.621094 30.328125 30.605469 30.285156 30.59375 30.234375 C 30.589844 30.210938 30.585938 30.191406 30.585938 30.167969 C 30.585938 30.148438 30.585938 30.125 30.585938 30.101562 C 30.585938 30.03125 30.597656 29.96875 30.617188 29.917969 C 30.640625 29.863281 30.675781 29.820312 30.714844 29.785156 C 30.753906 29.746094 30.800781 29.71875 30.859375 29.695312 C 30.914062 29.675781 30.972656 29.660156 31.039062 29.652344 L 31.039062 29.589844 C 31.039062 29.558594 31.046875 29.535156 31.058594 29.511719 C 31.074219 29.492188 31.097656 29.480469 31.132812 29.480469 L 31.140625 29.480469 C 31.21875 29.480469 31.261719 29.519531 31.269531 29.597656 L 31.269531 29.65625 C 31.308594 29.664062 31.351562 29.675781 31.398438 29.691406 C 31.441406 29.707031 31.492188 29.726562 31.546875 29.75 L 31.539062 29.746094 C 31.566406 29.757812 31.585938 29.765625 31.601562 29.78125 C 31.613281 29.792969 31.621094 29.816406 31.625 29.84375 L 31.625 29.859375 C 31.625 29.871094 31.625 29.882812 31.617188 29.898438 C 31.613281 29.914062 31.605469 29.933594 31.59375 29.945312 C 31.585938 29.960938 31.570312 29.976562 31.558594 29.988281 C 31.546875 29.996094 31.53125 30.003906 31.511719 30.003906 C 31.5 30.003906 31.488281 30.003906 31.476562 30 C 31.464844 29.996094 31.453125 29.992188 31.4375 29.980469 L 31.4375 29.984375 L 31.414062 29.96875 C 31.367188 29.945312 31.320312 29.929688 31.269531 29.914062 L 31.269531 30.527344 L 31.277344 30.535156 C 31.398438 30.59375 31.492188 30.664062 31.558594 30.738281 C 31.625 30.8125 31.667969 30.890625 31.6875 30.972656 C 31.699219 31.007812 31.703125 31.039062 31.707031 31.066406 C 31.710938 31.09375 31.714844 31.125 31.714844 31.152344 C 31.714844 31.222656 31.703125 31.285156 31.679688 31.339844 C 31.65625 31.394531 31.625 31.445312 31.585938 31.484375 C 31.546875 31.527344 31.503906 31.558594 31.445312 31.585938 C 31.390625 31.613281 31.332031 31.628906 31.269531 31.640625 L 31.269531 31.800781 C 31.269531 31.828125 31.261719 31.855469 31.25 31.875 C 31.238281 31.898438 31.214844 31.90625 31.175781 31.90625 L 31.164062 31.90625 C 31.125 31.90625 31.09375 31.898438 31.074219 31.878906 C 31.050781 31.859375 31.039062 31.828125 31.039062 31.789062 L 31.039062 31.636719 C 30.957031 31.628906 30.886719 31.613281 30.828125 31.585938 C 30.773438 31.558594 30.710938 31.523438 30.652344 31.484375 C 30.632812 31.46875 30.621094 31.457031 30.617188 31.445312 C 30.609375 31.433594 30.601562 31.417969 30.597656 31.394531 L 30.597656 31.382812 C 30.597656 31.367188 30.601562 31.355469 30.609375 31.335938 C 30.617188 31.320312 30.625 31.304688 30.640625 31.289062 C 30.652344 31.273438 30.664062 31.257812 30.675781 31.246094 C 30.691406 31.234375 30.703125 31.230469 30.714844 31.230469 C 30.734375 31.230469 30.746094 31.234375 30.761719 31.246094 C 30.773438 31.253906 30.785156 31.265625 30.796875 31.277344 L 30.800781 31.277344 C 30.804688 31.277344 30.804688 31.277344 30.804688 31.277344 Z M 30.914062 30.320312 C 30.949219 30.351562 30.992188 30.382812 31.039062 30.40625 L 31.039062 29.914062 C 30.984375 29.925781 30.9375 29.949219 30.898438 29.984375 C 30.859375 30.019531 30.839844 30.066406 30.839844 30.121094 C 30.839844 30.132812 30.839844 30.140625 30.839844 30.152344 C 30.839844 30.164062 30.84375 30.175781 30.847656 30.191406 C 30.859375 30.242188 30.878906 30.285156 30.914062 30.320312 Z M 31.378906 30.910156 C 31.347656 30.875 31.3125 30.84375 31.269531 30.816406 L 31.269531 31.375 C 31.320312 31.351562 31.363281 31.320312 31.398438 31.277344 C 31.433594 31.234375 31.453125 31.183594 31.453125 31.125 C 31.453125 31.109375 31.449219 31.09375 31.449219 31.082031 C 31.445312 31.066406 31.441406 31.054688 31.4375 31.039062 C 31.429688 30.988281 31.40625 30.945312 31.378906 30.910156 Z M 31.378906 30.910156 "/>
<path style=" stroke:none;fill-rule:nonzero;fill:rgb(27.843137%,16.862745%,16.078431%);fill-opacity:1;" d="M 36.070312 27.460938 C 36.070312 27.460938 36.078125 27.464844 36.085938 27.46875 L 36.082031 27.46875 C 36.125 27.496094 36.164062 27.519531 36.199219 27.539062 C 36.234375 27.554688 36.269531 27.566406 36.308594 27.574219 L 36.308594 26.875 L 36.269531 26.855469 C 36.21875 26.828125 36.171875 26.796875 36.128906 26.769531 C 36.082031 26.738281 36.042969 26.707031 36.007812 26.667969 C 35.96875 26.632812 35.941406 26.59375 35.914062 26.554688 C 35.890625 26.515625 35.875 26.472656 35.863281 26.421875 C 35.859375 26.398438 35.855469 26.378906 35.855469 26.355469 C 35.855469 26.335938 35.851562 26.3125 35.851562 26.289062 C 35.851562 26.21875 35.863281 26.15625 35.886719 26.105469 C 35.910156 26.050781 35.945312 26.007812 35.984375 25.96875 C 36.023438 25.933594 36.070312 25.90625 36.128906 25.882812 C 36.183594 25.859375 36.242188 25.847656 36.308594 25.839844 L 36.308594 25.777344 C 36.308594 25.746094 36.316406 25.722656 36.328125 25.699219 C 36.34375 25.679688 36.367188 25.667969 36.402344 25.667969 L 36.410156 25.667969 C 36.488281 25.667969 36.53125 25.707031 36.539062 25.78125 L 36.539062 25.84375 C 36.578125 25.851562 36.621094 25.863281 36.667969 25.878906 C 36.710938 25.894531 36.761719 25.914062 36.816406 25.9375 L 36.808594 25.933594 C 36.835938 25.941406 36.855469 25.953125 36.867188 25.96875 C 36.882812 25.980469 36.890625 26.003906 36.894531 26.03125 L 36.894531 26.046875 C 36.894531 26.054688 36.890625 26.070312 36.886719 26.085938 C 36.882812 26.101562 36.875 26.117188 36.863281 26.132812 C 36.851562 26.148438 36.839844 26.160156 36.828125 26.171875 C 36.8125 26.183594 36.800781 26.191406 36.78125 26.191406 C 36.769531 26.191406 36.757812 26.191406 36.746094 26.1875 C 36.734375 26.183594 36.722656 26.179688 36.707031 26.167969 L 36.707031 26.171875 L 36.679688 26.15625 C 36.636719 26.132812 36.589844 26.117188 36.539062 26.101562 L 36.539062 26.714844 L 36.546875 26.722656 C 36.667969 26.78125 36.761719 26.851562 36.828125 26.925781 C 36.894531 27 36.9375 27.078125 36.957031 27.160156 C 36.964844 27.195312 36.972656 27.226562 36.976562 27.253906 C 36.980469 27.28125 36.984375 27.3125 36.984375 27.339844 C 36.984375 27.410156 36.972656 27.472656 36.949219 27.527344 C 36.925781 27.582031 36.894531 27.632812 36.855469 27.671875 C 36.816406 27.714844 36.769531 27.746094 36.714844 27.773438 C 36.660156 27.800781 36.601562 27.816406 36.539062 27.824219 L 36.539062 27.988281 C 36.539062 28.015625 36.53125 28.042969 36.519531 28.0625 C 36.507812 28.085938 36.484375 28.09375 36.445312 28.09375 L 36.433594 28.09375 C 36.394531 28.09375 36.363281 28.085938 36.34375 28.066406 C 36.320312 28.046875 36.308594 28.015625 36.308594 27.976562 L 36.308594 27.824219 C 36.226562 27.816406 36.15625 27.800781 36.097656 27.773438 C 36.039062 27.746094 35.980469 27.710938 35.917969 27.671875 C 35.902344 27.65625 35.890625 27.644531 35.886719 27.632812 C 35.878906 27.621094 35.871094 27.605469 35.867188 27.582031 L 35.867188 27.566406 C 35.867188 27.554688 35.871094 27.539062 35.878906 27.523438 C 35.886719 27.503906 35.894531 27.488281 35.90625 27.472656 C 35.921875 27.457031 35.933594 27.445312 35.945312 27.433594 C 35.960938 27.421875 35.972656 27.414062 35.984375 27.414062 C 36 27.414062 36.015625 27.421875 36.027344 27.429688 C 36.042969 27.441406 36.054688 27.449219 36.066406 27.460938 L 36.070312 27.460938 C 36.070312 27.460938 36.074219 27.464844 36.074219 27.464844 Z M 36.183594 26.507812 C 36.21875 26.539062 36.261719 26.566406 36.308594 26.59375 L 36.308594 26.101562 C 36.253906 26.113281 36.203125 26.136719 36.167969 26.171875 C 36.128906 26.207031 36.109375 26.253906 36.109375 26.308594 C 36.109375 26.320312 36.109375 26.328125 36.109375 26.339844 C 36.109375 26.347656 36.113281 26.363281 36.117188 26.378906 C 36.125 26.429688 36.148438 26.472656 36.183594 26.507812 Z M 36.644531 27.097656 C 36.617188 27.0625 36.578125 27.03125 36.539062 27.003906 L 36.539062 27.5625 C 36.589844 27.539062 36.632812 27.507812 36.667969 27.464844 C 36.703125 27.421875 36.722656 27.371094 36.722656 27.3125 C 36.722656 27.296875 36.71875 27.28125 36.71875 27.269531 C 36.714844 27.253906 36.710938 27.242188 36.707031 27.226562 C 36.695312 27.175781 36.675781 27.132812 36.644531 27.097656 Z M 36.644531 27.097656 "/>
</g>
</svg>
