<?xml version="1.0" encoding="UTF-8"?>
<svg xmlns="http://www.w3.org/2000/svg" xmlns:xlink="http://www.w3.org/1999/xlink" width="48px" height="48px" viewBox="0 0 48 48" version="1.1">
<g id="surface157966">
<path style=" stroke:none;fill-rule:nonzero;fill:rgb(81.176471%,84.705882%,86.27451%);fill-opacity:1;" d="M 21 13 L 23 13 L 23 43 L 21 43 Z M 21 13 "/>
<path style=" stroke:none;fill-rule:nonzero;fill:rgb(69.019608%,74.509804%,77.254902%);fill-opacity:1;" d="M 21 13 L 23 13 L 23 24 L 21 24 Z M 21 13 "/>
<path style=" stroke:none;fill-rule:nonzero;fill:rgb(36.470588%,25.098039%,21.568627%);fill-opacity:1;" d="M 38.050781 38.316406 L 36.050781 32.316406 L 37.949219 31.683594 L 39.949219 37.683594 Z M 8 38 L 8 43 L 11 43 L 11 38 Z M 37 38 L 37 43 L 40 43 L 40 38 Z M 37 38 "/>
<path style=" stroke:none;fill-rule:nonzero;fill:rgb(0%,73.72549%,83.137255%);fill-opacity:1;" d="M 5 17 L 22 5.25 L 39 17 L 29 20 L 15 20 Z M 5 17 "/>
<path style=" stroke:none;fill-rule:nonzero;fill:rgb(50.196078%,87.058824%,91.764706%);fill-opacity:1;" d="M 15 20 L 22 5.25 L 29 20 Z M 15 20 "/>
<path style=" stroke:none;fill-rule:nonzero;fill:rgb(0%,51.372549%,56.078431%);fill-opacity:1;" d="M 23 6 L 21 6 L 21 5 C 21 4.449219 21.449219 4 22 4 C 22.550781 4 23 4.449219 23 5 Z M 23 6 "/>
<path style=" stroke:none;fill-rule:nonzero;fill:rgb(100%,59.607843%,0%);fill-opacity:1;" d="M 33.398438 26.199219 C 32.40625 24.875 30.527344 24.605469 29.199219 25.597656 L 23.199219 30.097656 C 23.046875 30.214844 22.910156 30.34375 22.785156 30.480469 L 17.976562 26.359375 C 17.382812 25.847656 16.492188 25.882812 15.9375 26.4375 L 10.9375 31.4375 C 10.351562 32.023438 10.351562 32.972656 10.9375 33.558594 C 11.523438 34.144531 12.472656 34.144531 13.058594 33.558594 L 17.078125 29.542969 L 22.570312 34.246094 C 22.582031 34.265625 22.585938 34.28125 22.601562 34.300781 C 23.1875 35.085938 24.089844 35.5 25.003906 35.5 C 25.628906 35.5 26.261719 35.304688 26.800781 34.898438 L 32.800781 30.398438 C 34.125 29.40625 34.394531 27.523438 33.398438 26.199219 Z M 33.398438 26.199219 "/>
<path style=" stroke:none;fill-rule:nonzero;fill:rgb(100%,87.843137%,69.803922%);fill-opacity:1;" d="M 42.882812 28 L 40.980469 25.742188 C 40.285156 24.882812 39.027344 24.75 38.167969 25.445312 L 27.25 34 L 7 34 C 5.894531 34 5 34.894531 5 36 L 5 38 L 29 38 L 31.183594 37 Z M 42.882812 28 "/>
<path style=" stroke:none;fill-rule:nonzero;fill:rgb(55.294118%,43.137255%,38.823529%);fill-opacity:1;" d="M 31.457031 37 L 42.984375 28.113281 L 41.707031 26.574219 L 28.179688 37 L 5 37 L 5 39 L 43 39 L 43 37 Z M 31.457031 37 "/>
<path style=" stroke:none;fill-rule:nonzero;fill:rgb(24.705882%,31.764706%,70.980392%);fill-opacity:1;" d="M 22 31 L 22 34 L 27.25 34 L 24.671875 29.046875 Z M 22 31 "/>
<path style=" stroke:none;fill-rule:nonzero;fill:rgb(100%,71.764706%,30.196078%);fill-opacity:1;" d="M 36 20 C 37.65625 20 39 21.34375 39 23 C 39 24.65625 37.65625 26 36 26 C 34.34375 26 33 24.65625 33 23 C 33 21.34375 34.34375 20 36 20 M 27.765625 33.671875 L 32.4375 29.9375 C 33.085938 29.417969 33.1875 28.476562 32.671875 27.828125 C 32.152344 27.183594 31.210938 27.078125 30.5625 27.597656 L 27.09375 30.375 L 25.746094 28.683594 C 25.289062 27.996094 24.359375 27.808594 23.667969 28.269531 C 22.980469 28.730469 22.792969 29.660156 23.253906 30.347656 L 25.582031 33.335938 C 25.8125 33.683594 26.183594 33.921875 26.597656 33.984375 C 26.675781 33.996094 26.753906 34.003906 26.828125 34.003906 C 27.167969 34 27.496094 33.886719 27.765625 33.671875 Z M 22 31 L 8.5 31 C 7.675781 31 7 31.675781 7 32.5 C 7 33.324219 7.675781 34 8.5 34 L 22 34 Z M 22 31 "/>
</g>
</svg>
